<?xml version="1.0" encoding="UTF-8"?>
<svg version="1.1" xmlns="http://www.w3.org/2000/svg" width="32" height="32">
<path d="M0 0 C6.6 0 13.2 0 20 0 C20 5.28 20 10.56 20 16 C17.03 16.33 14.06 16.66 11 17 C13.165625 17.2475 13.165625 17.2475 15.375 17.5 C16.59316406 17.63921875 16.59316406 17.63921875 17.8359375 17.78125 C19.96912825 18.03352351 19.96912825 18.03352351 22 18 C23.32 18 24.64 18 26 18 C26 14.04 26 10.08 26 6 C24.68 6 23.36 6 22 6 C22 5.34 22 4.68 22 4 C23.98 4 25.96 4 28 4 C28 9.28 28 14.56 28 20 C26.68 20 25.36 20 24 20 C24 21.98 24 23.96 24 26 C23.05125 25.195625 22.1025 24.39125 21.125 23.5625 C16.79715732 20.45351913 12.28770939 19.63947436 7 20 C6.01 20.66 5.02 21.32 4 22 C4 20.02 4 18.04 4 16 C2.68 16 1.36 16 0 16 C0 10.72 0 5.44 0 0 Z M2 2 C2 5.96 2 9.92 2 14 C3.32 14 4.64 14 6 14 C6.33 14.66 6.66 15.32 7 16 C7.33 15.67 7.66 15.34 8 15 C9.68183948 14.76712992 11.3712416 14.58735834 13.0625 14.4375 C15.5065625 14.2209375 15.5065625 14.2209375 18 14 C18 10.04 18 6.08 18 2 C12.72 2 7.44 2 2 2 Z " fill="#ffffff" transform="translate(2,5)"/>
</svg>
